<?xml version="1.0" standalone="no"?>
<!DOCTYPE svg PUBLIC "-//W3C//DTD SVG 20010904//EN"
 "http://www.w3.org/TR/2001/REC-SVG-20010904/DTD/svg10.dtd">
<svg version="1.0" xmlns="http://www.w3.org/2000/svg"
 width="512.000000pt" height="512.000000pt" viewBox="0 0 512.000000 512.000000"
 preserveAspectRatio="xMidYMid meet">

<g transform="translate(0.000000,512.000000) scale(0.100000,-0.100000)"
fill="#000000" stroke="none">
<path d="M645 4306 c-18 -13 -18 -18 -6 -67 27 -107 104 -337 162 -484 374
-950 1093 -1721 2058 -2204 419 -210 893 -372 1319 -451 102 -19 119 -25 105
-35 -10 -6 -83 -47 -163 -90 -80 -43 -157 -87 -172 -97 -32 -22 -36 -53 -9
-67 21 -12 17 -13 301 142 209 114 200 108 200 132 0 11 -71 110 -158 220
-142 179 -161 200 -187 200 -57 0 -43 -32 80 -189 64 -81 114 -150 111 -153
-14 -15 -425 84 -652 158 -929 299 -1713 834 -2237 1526 -291 385 -516 836
-656 1316 -41 142 -60 170 -96 143z"/>
</g>
</svg>
