<svg version="1.1" id="Capa_1" xmlns="http://www.w3.org/2000/svg" xmlns:xlink="http://www.w3.org/1999/xlink" x="0px" y="0px" viewBox="0 0 512.001 512.001" style="enable-background:new 0 0 512.001 512.001;" xml:space="preserve"><path style="fill:#A5CDFF;" d="M312.113,7.5H199.887c-26.563,0-48.097,21.534-48.097,48.097v400.806 c0,26.563,21.534,48.097,48.097,48.097h112.226c26.563,0,48.097-21.534,48.097-48.097V55.597C360.21,29.034,338.676,7.5,312.113,7.5 z"></path><path style="fill:#DCEBFF;" d="M314.746,149.085c-38.85-7.013-78.643-7.013-117.492,0c-7.715,1.392-13.399,7.999-13.399,15.839 v230.248c0,7.84,5.684,14.447,13.399,15.839c38.85,7.012,78.643,7.012,117.492,0c7.715-1.392,13.399-7.999,13.399-15.839V164.924 C328.145,157.084,322.461,150.477,314.746,149.085z"></path><path style="fill:#8CB4EB;" d="M247.984,488.468c-35.417,0-64.129-28.712-64.129-64.129V10.296 c-18.668,6.61-32.065,24.368-32.065,45.301v400.806c0,26.563,21.534,48.097,48.097,48.097h112.226 c14.227,0,26.972-6.214,35.778-16.032H247.984z"></path><g><path style="fill:#EDEBED;" d="M207.903,21.425V7.5h-8.016c-26.563,0-48.097,21.534-48.097,48.097l38.671-11.05 C200.785,41.598,207.903,32.162,207.903,21.425z"></path><path style="fill:#EDEBED;" d="M304.097,21.425V7.5h8.016c26.563,0,48.097,21.534,48.097,48.097l-38.671-11.05 C311.215,41.598,304.097,32.162,304.097,21.425z"></path></g><g><path style="fill:#FF8087;" d="M186.593,473.804l-34.803-17.401c0,26.563,21.534,48.097,48.097,48.097v-9.186 C199.887,486.205,194.741,477.878,186.593,473.804z"></path><path style="fill:#FF8087;" d="M325.407,473.804l34.803-17.401c0,26.563-21.534,48.097-48.097,48.097v-9.186 C312.113,486.205,317.259,477.878,325.407,473.804z"></path></g><path style="fill:#C4DEFF;" d="M197.254,411.012c53.913,12.155,117.523,0.827,117.621,0.811c5.323-0.879,8.117-6.773,5.7-11.533 h-69.699c-9.907,0-17.442-8.896-15.813-18.668l4.904-29.428h-24.048V231.952h68.823c6.594,0,12.516-4.037,14.925-10.177l2.299-5.856 h-36.088c-10.621,0-19.984-6.966-23.035-17.138l-16.072-53.575c-0.238,0.022-0.648,0.033-1.173,0.038 c-9.485,0.876-18.942,2.142-28.343,3.84c-7.715,1.392-13.399,7.999-13.399,15.839v75.044v112.226v42.979 C183.855,403.013,189.606,409.288,197.254,411.012z"></path><rect x="215.92" y="231.95" style="fill:#A5CDFF;" width="80.16" height="120.24"></rect><path d="M312.113,0H199.887C169.23,0,144.29,24.94,144.29,55.597v400.807c0,30.656,24.94,55.597,55.597,55.597h112.227 c30.656,0,55.597-24.94,55.597-55.597V55.597C367.71,24.94,342.77,0,312.113,0z M304.613,495.314V497h-97.227v-1.686 c0-12.027-6.683-22.84-17.438-28.218l-30.658-15.329V61.255l33.232-9.495c13.472-3.85,22.881-16.323,22.881-30.335V15h81.193v8.532 c0,14.012,9.409,26.485,22.881,30.335l33.232,9.495v388.406l-30.658,15.329C311.296,472.475,304.613,483.287,304.613,495.314z M351.902,47.53l-28.304-8.087c-7.066-2.019-12.002-8.562-12.002-15.911V15h0.517C331.737,15,348.151,28.997,351.902,47.53z M199.887,15h0.517v6.425c0,7.35-4.936,13.893-12.002,15.911l-27.777,7.936C165.204,27.872,181.069,15,199.887,15z M161.523,469.655 l21.717,10.858c5.643,2.821,9.147,8.493,9.147,14.802v0.979C177.978,493.59,166.234,483.255,161.523,469.655z M319.613,496.294 v-0.979c0-6.309,3.505-11.98,9.147-14.802l21.717-10.858C345.766,483.255,334.022,493.59,319.613,496.294z"></path><path d="M335.646,395.173V239.97c0-4.143-3.357-7.5-7.5-7.5s-7.5,3.357-7.5,7.5v64.644h-17.064v-71.218l17.064-42.662v17.168 c0,4.143,3.357,7.5,7.5,7.5s7.5-3.357,7.5-7.5v-42.979c0-11.408-8.229-21.173-19.567-23.22c-39.865-7.195-80.291-7.195-120.156,0 c-11.338,2.047-19.567,11.812-19.567,23.22v230.249c0,11.408,8.229,21.173,19.567,23.22c19.933,3.598,40.005,5.396,60.078,5.396 s40.146-1.799,60.078-5.396C327.416,416.346,335.646,406.581,335.646,395.173z M320.646,319.613v59.672l-17.064-29.127v-30.545 L320.646,319.613L320.646,319.613z M223.419,344.693V239.451h65.162v105.242H223.419z M208.419,233.396v71.218h-17.064v-113.88 L208.419,233.396z M191.354,379.285v-59.672h17.064v30.545L191.354,379.285z M198.586,156.466c38.098-6.877,76.73-6.877,114.828,0 c1.533,0.277,2.91,0.931,4.043,1.849l-26.454,66.136h-70.006l-26.454-66.136C195.676,157.397,197.053,156.742,198.586,156.466z M313.414,403.631c-38.098,6.877-76.73,6.877-114.828,0c-1.226-0.221-2.349-0.688-3.331-1.333l24.961-42.605h71.567l24.961,42.605 C315.763,402.943,314.64,403.41,313.414,403.631z"></path></svg>