<?xml version="1.0" encoding="iso-8859-1"?>
<!-- Generator: Adobe Illustrator 19.0.0, SVG Export Plug-In . SVG Version: 6.00 Build 0)  -->
<svg version="1.1" id="Layer_1" xmlns="http://www.w3.org/2000/svg" xmlns:xlink="http://www.w3.org/1999/xlink" x="0px" y="0px"
	 viewBox="0 0 512 512" style="enable-background:new 0 0 512 512;" xml:space="preserve">
<circle style="fill:#707487;" cx="256" cy="307.307" r="196.676"/>
<circle style="fill:#EFF2FA;" cx="256" cy="307.307" r="162.472"/>
<circle style="fill:#C7CFE2;" cx="256" cy="307.307" r="94.063"/>
<circle style="fill:#5B5D6E;" cx="256" cy="307.307" r="25.653"/>
<g>
	<path style="fill:#959CB3;" d="M101.478,132.237l20.854-16.411c3.711-2.92,4.353-8.297,1.431-12.008l-10.577-13.439
		c-2.92-3.711-8.297-4.353-12.008-1.431l-20.854,16.411c-3.711,2.92-4.353,8.297-1.431,12.008l10.577,13.439
		C92.391,134.517,97.766,135.157,101.478,132.237z"/>
	<path style="fill:#959CB3;" d="M410.522,132.237l-20.854-16.411c-3.711-2.92-4.353-8.297-1.431-12.008l10.577-13.439
		c2.92-3.711,8.297-4.353,12.008-1.431l20.854,16.411c3.711,2.92,4.353,8.297,1.431,12.008l-10.577,13.439
		C419.609,134.517,414.234,135.157,410.522,132.237z"/>
</g>
<path d="M387.634,150.687l12.38-15.731l4.121,3.243l0,0c2.95,2.321,6.517,3.55,10.213,3.55c0.662,0,1.328-0.04,1.995-0.119
	c4.394-0.524,8.322-2.728,11.059-6.206l10.578-13.439c2.736-3.477,3.955-7.814,3.431-12.207c-0.524-4.394-2.728-8.322-6.206-11.059
	L414.35,82.308c-3.478-2.736-7.815-3.953-12.207-3.431c-4.394,0.524-8.322,2.728-11.059,6.206l-10.577,13.439
	c-2.736,3.477-3.955,7.814-3.431,12.207c0.524,4.394,2.728,8.322,6.206,11.059l4.132,3.252l-12.433,15.799
	c-31.522-22.595-69.698-36.459-110.969-38.056v-1.878c24.201-3.85,42.76-24.862,42.76-50.132C306.772,22.777,283.995,0,256,0
	s-50.772,22.777-50.772,50.772c0,25.265,18.553,46.275,42.749,50.132v1.881c-41.843,1.622-80.498,15.859-112.269,39.012
	l-13.187-16.757l4.133-3.253c7.179-5.65,8.422-16.087,2.773-23.266l-10.576-13.439c-2.737-3.477-6.665-5.681-11.059-6.206
	c-4.391-0.521-8.73,0.695-12.207,3.431L74.732,98.721c-7.178,5.649-8.422,16.086-2.773,23.266l10.577,13.439
	c2.737,3.477,6.665,5.681,11.059,6.206c0.667,0.079,1.333,0.119,1.995,0.119c3.696,0,7.263-1.229,10.213-3.55l4.122-3.244
	l13.205,16.778c-43.928,37.574-71.822,93.373-71.822,155.572C51.307,420.175,143.132,512,256,512s204.693-91.825,204.693-204.693
	C460.693,244.525,432.273,188.266,387.634,150.687z M393.108,108.439L403.685,95c0.034-0.043,0.137-0.174,0.356-0.201
	c0.222-0.022,0.352,0.077,0.394,0.111l20.854,16.412c0.043,0.033,0.174,0.137,0.201,0.356c0.026,0.22-0.077,0.352-0.111,0.394
	l-10.578,13.439c-0.034,0.044-0.137,0.174-0.356,0.201c-0.217,0.027-0.352-0.077-0.394-0.111l0,0l-10.405-8.189
	c-0.005-0.004-0.011-0.01-0.016-0.014c-0.005-0.004-0.012-0.007-0.017-0.012l-10.415-8.197c-0.043-0.033-0.174-0.137-0.201-0.356
	C392.97,108.612,393.074,108.482,393.108,108.439z M95.491,125.712c-0.22-0.027-0.323-0.157-0.357-0.201l-10.577-13.439
	c-0.182-0.232-0.142-0.569,0.089-0.751L105.5,94.909c0.038-0.03,0.146-0.115,0.324-0.115c0.022,0,0.045,0.001,0.069,0.004
	c0.22,0.027,0.323,0.157,0.356,0.201l10.577,13.439c0.183,0.232,0.142,0.569-0.089,0.75l-10.417,8.197
	c-0.005,0.004-0.011,0.007-0.016,0.012s-0.01,0.009-0.015,0.013l-10.406,8.189C95.842,125.635,95.711,125.738,95.491,125.712z
	 M221.261,50.772c0-19.155,15.584-34.739,34.739-34.739s34.739,15.584,34.739,34.739c0,16.398-11.424,30.168-26.729,33.796V67.34
	h0.541c4.427,0,8.017-3.589,8.017-8.017s-3.589-8.017-8.017-8.017h-17.102c-4.427,0-8.017,3.589-8.017,8.017
	s3.589,8.017,8.017,8.017h0.528v17.225C232.679,80.933,221.261,67.166,221.261,50.772z M256,495.967
	c-104.027,0-188.66-84.633-188.66-188.66s84.633-188.66,188.66-188.66s188.66,84.633,188.66,188.66S360.027,495.967,256,495.967z"/>
<path d="M256,136.818c-94.008,0-170.489,76.48-170.489,170.489S161.992,477.795,256,477.795s170.489-76.48,170.489-170.489
	S350.008,136.818,256,136.818z M256,461.762c-85.167,0-154.455-69.288-154.455-154.455S170.833,152.852,256,152.852
	s154.455,69.288,154.455,154.455S341.167,461.762,256,461.762z"/>
<path d="M348.306,224.952c0.582-1.988,0.378-4.157-0.611-6.018c-0.365-0.686-0.835-1.332-1.413-1.91
	c-24.151-24.15-56.213-37.45-90.282-37.45c-70.433,0-127.733,57.3-127.733,127.733S185.567,435.04,256,435.04
	c4.427,0,8.017-3.589,8.017-8.017c0-4.427-3.589-8.017-8.017-8.017c-61.592,0-111.699-50.108-111.699-111.699
	S194.408,195.608,256,195.608c27.105,0,52.76,9.635,73.076,27.287l-55.626,55.626c-5.092-3.098-11.066-4.884-17.45-4.884
	c-18.566,0-33.67,15.105-33.67,33.67c0,6.383,1.786,12.357,4.884,17.45l-11.087,11.087c-3.131,3.131-3.131,8.207,0,11.337
	c1.565,1.565,3.617,2.348,5.668,2.348s4.103-0.782,5.668-2.348l11.087-11.087c5.092,3.098,11.066,4.884,17.45,4.884
	c18.566,0,33.67-15.105,33.67-33.67c0-6.383-1.786-12.357-4.884-17.45l61.491-61.491c0.002-0.002,0.003-0.003,0.005-0.005
	c0.9-0.9,1.533-1.964,1.915-3.093c0.033-0.098,0.073-0.195,0.103-0.293C348.303,224.967,348.304,224.959,348.306,224.952z
	 M256,324.944c-9.725,0-17.637-7.912-17.637-17.637c0-9.725,7.912-17.637,17.637-17.637s17.637,7.912,17.637,17.637
	C273.637,317.032,265.725,324.944,256,324.944z"/>
<g>
</g>
<g>
</g>
<g>
</g>
<g>
</g>
<g>
</g>
<g>
</g>
<g>
</g>
<g>
</g>
<g>
</g>
<g>
</g>
<g>
</g>
<g>
</g>
<g>
</g>
<g>
</g>
<g>
</g>
</svg>
